<?xml version="1.0" encoding="UTF-8" standalone="no"?>
<!-- Created with Inkscape (http://www.inkscape.org/) -->

<svg
   width="6423.8926"
   height="666.87561"
   viewBox="0 0 6423.8926 666.87561"
   version="1.1"
   id="svg1"
   xml:space="preserve"
   xmlns="http://www.w3.org/2000/svg"
   xmlns:svg="http://www.w3.org/2000/svg"><defs
     id="defs1" /><g
     id="layer3"
     transform="translate(1291.9498,-1452.3136)"><path
       style="display:inline;opacity:1;fill:#35212d;fill-opacity:1;stroke:none;stroke-width:0.3;stroke-dasharray:none;stroke-opacity:1"
       d="m -1291.9498,2119.1891 v -411.7865 c 3.8749,1.8567 6.1525,4.0006 6.1525,4.0006 34.4624,19.7767 45.491,-10.4489 57.8386,-2.8187 12.3476,7.6302 11.5885,0.6605 24.0613,-3.6588 12.4728,-4.3193 14.7364,3.1153 21.9465,8.8925 7.2102,5.7772 9.9866,2.9793 9.9866,2.9793 21.4825,-5.9359 21.953,11.4557 36.6844,6.1006 14.7314,-5.3551 19.0821,6.7063 29.608,16.0603 10.5258,9.354 16.0965,0.078 26.4241,-1.1798 10.3275,-1.2572 16.0639,-13.122 22.2114,-6.6758 6.1476,6.4462 17.0191,5.6697 27.1849,1.3209 10.1658,-4.3487 19.1526,6.0768 33.45535,18.7306 14.30278,12.6539 23.80032,-18.1941 31.89525,-7.2184 8.09492,10.9757 21.857,1.5049 26.65404,-4.5664 4.79705,-6.0712 18.21399,3.9837 33.11785,11.2082 14.90386,7.2245 19.67057,-9.9411 25.61991,-10.0702 5.94934,-0.1291 2.81997,-7.4599 3.74748,-13.0151 0.92751,-5.5551 10.14936,-5.5791 10.14936,-5.5791 24.90815,3.7231 16.60035,25.9987 29.13847,23.3069 12.53811,-2.6917 30.30614,19.9813 39.92505,26.6062 9.61891,6.6248 22.02611,-19.4679 32.47539,-5.2211 10.44928,14.2469 30.45329,6.7823 33.91106,-0.2052 3.45777,-6.9875 13.91378,-7.4561 13.91378,-7.4561 24.52988,-25.3043 21.69642,6.501 32.9019,-4.5814 11.20548,-11.0824 10.61194,-10.0976 16.82216,0.597 6.21022,10.6946 12.1361,4.1966 12.1361,4.1966 4.52981,-14.4211 11.97578,1.0459 13.65938,-6.7353 1.68359,-7.7813 6.65233,-9.5044 6.65233,-9.5044 0,0 4.2141,-3.3243 8.36769,-2.5233 4.15359,0.8011 4.42969,1.5671 11.11642,-6.2267 6.68674,-7.7937 3.44337,15.9935 11.51287,2.1427 8.0695,-13.8507 40.47966,6.6359 55.19993,-17.1757 0,0 2.19636,-3.4406 6.79327,-2.5373 4.5969,0.9032 7.02355,6.5687 18.19596,-7.3466 0,0 3.37492,-5.9794 8.16365,-5.2655 4.78873,0.7139 8.54746,-2.88 8.54746,-2.88 0,0 1.87565,-3.6254 8.22248,-3.8706 6.34682,-0.2453 9.6288,-5.6077 20.03377,-7.8633 10.40498,-2.2556 31.05637,-16.0518 31.44507,-23.5134 0,0 0.83978,-6.868 5.01317,-6.868 4.17339,0 4.27286,9.6958 13.74393,5.1706 9.47107,-4.5252 8.11204,7.9126 19.52665,-5.1883 11.41461,-13.1009 19.22114,6.6262 27.3185,-11.1623 0,0 2.93531,-4.36 0.731,-8.6852 -2.20431,-4.3253 3.11661,-8.0553 7.42802,-6.362 4.31141,1.6933 14.68666,0.5302 17.1927,-5.378 2.50605,-5.9083 7.62659,-6.7333 11.74817,-2.3332 4.12158,4.4002 11.13184,1.6148 13.1982,-0.049 2.06636,-1.6641 11.16365,5.7856 18.33186,13.7346 7.1682,7.949 2.83793,-0.3317 24.54082,2.9549 21.70288,3.2865 18.26485,8.2507 19.77791,4.6408 1.51306,-3.6098 9.52342,-8.5977 13.4059,-1.3168 3.88248,7.281 7.64409,-14.5357 16.87929,-9.1344 9.2352,5.4013 14.19699,8.3966 18.67578,2.0904 4.47878,-6.3063 6.69179,11.0134 13.60794,4.1441 6.91616,-6.8694 13.33675,4.6277 24.40344,1.2303 11.06668,-3.3974 13.16107,-1.6391 14.5206,-14.7946 1.35953,-13.1556 2.70862,-30.354 8.99643,-16.1355 6.28782,14.2185 1.71645,31.7308 13.81017,25.3456 0,0 5.38046,-3.0405 11.01288,0.2736 5.63241,3.3142 6.84925,-12.0728 26.73047,-4.684 0,0 13.920116,6.0383 21.366125,-4.6851 0,0 2.209196,-4.8194 6.395201,-0.2768 4.186005,4.5425 11.949063,-2.5182 13.988054,-9.0447 2.038991,-6.5266 8.069145,4.587 10.864666,2.2688 2.79552,-2.3183 3.028462,-16.6718 20.782013,-18.6129 31.24849489,-3.4166 14.594426,21.1517 42.711774,1.6023 22.096752,-15.3634 29.945776,2.3551 40.394877,-8.3584 10.4491,-10.7136 13.369252,8.1811 18.941156,-7.1329 5.571903,-15.3139 12.391382,1.7594 18.714878,-2.5556 6.323497,-4.3149 10.191673,1.3015 13.334896,-8.4959 3.14322,-9.7974 9.88495,-8.8631 14.1465,-7.2226 4.26155,1.6408 7.70843,6.1921 13.67067,1.7208 0,0 10.07284,-8.2385 16.07407,-5.2032 6.00123,3.0353 15.1646,-13.6408 25.75308,-12.3093 10.58848,1.3314 26.17297,5.75 37.08927,-4.2295 10.91631,-9.9795 29.02709,4.7563 37.10792,-2.6219 8.08083,-7.3781 19.38299,-0.352 24.88188,-5.6808 5.49889,-5.3289 7.90473,-5.8247 13.87363,-3.1846 19.52034,8.6337 61.97963,-25.5193 67.96705,-12.441 1.97712,4.3186 5.972,10.0879 10.40468,2.1349 4.43268,-7.9529 9.19601,-0.7326 19.84427,-6.8469 10.64825,-6.1143 7.83292,-8.7975 14.47142,-5.8828 8.74372,7.3263 11.70911,11.665 23.10818,3.7026 12.69453,-8.8672 10.72254,1.1385 18.1063,-1.3317 8.58091,-4.5822 10.83126,7.7509 16.77443,-6.0954 2.54272,-5.9239 10.28572,-3.6139 19.42163,-3.4684 9.13591,0.1455 16.75061,4.5381 24.78512,-1.3028 12.04749,-8.7582 24.22665,10.4835 30.64746,-4.1885 4.83299,-11.0437 6.81455,5.8458 12.19781,-4.2299 5.38326,-10.0758 11.03879,-0.4843 21.59532,-11.64 16.85662,-17.8132 31.07998,-0.2857 41.47142,-14.8571 8.00894,-11.2306 22.49852,-11.8239 32.53592,-10.5762 10.17883,1.2653 20.63577,-3.9438 24.47209,-7.0152 8.47647,-6.7863 12.68956,-0.2305 19.15288,2.5806 2.35933,1.0262 8.93123,4.699 16.08524,-1.0113 7.60499,-6.0702 14.82838,11.2364 20.08381,6.223 8.55943,-8.1652 22.66157,-0.2245 23.036,3.5711 0.8861,8.9822 4.54419,7.4536 6.67652,6.3929 8.85197,-4.4033 10.12461,1.6507 16.74482,5.5206 3.28678,0.8258 9.31297,-11.4213 20.99411,-9.1546 17.21244,3.3399 15.7026,20.3998 33.60296,16.6532 9.67484,-2.025 24.53894,5.6353 25.09832,8.0742 1.79308,8.0813 15.36616,13.2962 26.06747,10.3695 33.96995,-14.0977 39.11426,12.6301 64.26151,9.4073 25.14725,-3.2228 47.49591,28.1989 48.87279,35.6373 1.37688,7.4385 19.48395,27.4201 33.75095,15.1132 14.2671,-12.3069 26.1114,36.5361 50.3392,24.2903 10.3754,-8.968 27.3341,7.378 31.3674,14.4003 6.9527,12.1051 17.5509,8.6462 23.9687,23.5536 14.805,34.3896 27.774,4.9255 42.5953,-0.4756 39.6486,-14.4485 17.9006,29.5506 57.1263,27.7933 21.7152,-0.9729 4.5267,26.6872 35.2783,15.4107 0,0 17.1568,-8.94 36.2962,38.8602 19.1395,47.8001 25.6909,-9.921 76.1677,33.1685 50.4769,43.0895 17.6235,55.4528 58.8258,44.4549 29.4607,-7.8637 60.6873,15.2944 57.6127,30.4892 -3.0746,15.1948 4.7645,25.4639 29.0166,22.5705 31.7353,-3.7861 79.3359,28.2993 91.3995,14.3907 12.0636,-13.9086 45.8686,42.9962 63.7151,37.382 17.8465,-5.6142 28.5873,9.5527 47.9196,-3.2476 19.3322,-12.8003 14.4062,18.7659 47.3479,4.902 32.9416,-13.8638 67.3495,34.6719 94.6195,10.4338 27.27,-24.2382 33.8751,13.3546 59.5673,-13.5221 25.6922,-26.8767 93.137,65.6739 141.2206,47.2434 48.0836,-18.4304 66.9591,-44.1451 88.4687,-28.8309 21.5096,15.3141 43.8486,-10.277 68.5641,-8.9712 24.7155,1.3058 38.6844,-19.9775 84.4634,-15.3035 45.779,4.6741 31.3697,-42.4939 102.3878,-45.3531 71.0181,-2.8592 47.0394,29.0912 71.843,-12.3799 24.8036,-41.4711 30.4756,-61.2762 78.3697,-48.9344 47.8941,12.3418 19.6521,-11.9284 61.6509,-27.5666 41.9987,-15.6382 35.1063,-33.1681 65.3502,-16.3374 30.2439,16.8308 51.454,-18.4523 99.0217,14.661 47.5676,33.1134 44.6673,6.9639 86.016,2.5413 41.3488,-4.4227 63.0702,-52.3116 87.8479,-37.2584 24.7777,15.0531 62.8042,17.7059 80.2365,3.0417 0,0 23.809,-23.891 36.3997,-22.0188 12.5908,1.8722 19.3905,-2.2155 22.0349,-12.7343 2.6444,-10.5188 14.3577,-17.2169 27.7697,2.3303 0,0 9.8378,10.9665 16.3563,-0.396 6.5186,-11.3624 17.1912,13.7715 44.8517,2.159 0,0 7.2974,-6.9198 15.5037,-1.6837 8.2062,5.2361 28.4707,8.6278 44.3081,-20.2177 15.8375,-28.8455 33.9964,-13.2163 54.5915,-31.6715 20.5952,-18.4551 28.0268,-39.3223 57.5172,-19.11 29.4903,20.2123 54.4305,-16.3428 88.91,-4.1098 34.4795,12.2331 86.4982,17.3611 108.3153,0.958 12.5789,-9.4574 11.9323,-3.0391 31.7857,4.3305 14.5807,5.4124 50.0819,7.9775 60.0728,22.1534 23.5946,33.478 44.037,-19.0941 75.7186,-9.807 31.6816,9.2872 51.4047,38.7755 78.4797,24.3965 12.7449,-6.7686 23.4964,-23.9156 41.9446,-28.0684 20.5535,-4.6267 11.5585,5.8105 28.9332,14.3708 32.8274,16.1737 48.7017,20.5642 82.5272,18.0601 33.8255,-2.5041 24.1663,-34.3126 84.2615,-45.3152 60.0951,-11.0026 53.7055,63.1852 92.4378,41.3313 38.7322,-21.8538 79.9692,-15.7291 79.9692,-15.7291 0,0 24.4308,6.4722 36.1617,15.7806 11.731,9.3083 6.7899,34.3143 28.3584,-0.1182 21.5686,-34.4325 102.9989,-20.0051 126.2561,-57.2467 23.2573,-37.2416 105.5815,-26.3902 140.7353,29.732 0,0 13.2486,31.4175 32.9445,24.1153 19.6959,-7.3022 13.1029,-40.5771 50.2899,-44.2457 37.1871,-3.6686 23.8919,-75.3845 62.2977,-67.4258 38.4058,7.9586 13.0369,98.1971 68.0778,94.9173 55.0409,-3.2797 51.3014,29.8409 84.7248,39.2855 33.4235,9.4445 56.413,-44.1932 111.1776,-34.8983 54.7645,9.2949 60.0723,51.16 88.1981,8.1198 27.307,-41.7874 46.3554,45.8711 94.5923,20.0607 l -0.3277,455.8108 z"
       id="path10" /></g></svg>
