<?xml version="1.0" encoding="UTF-8" standalone="no"?>
<!-- Created with Inkscape (http://www.inkscape.org/) -->

<svg
   width="6423.9038"
   height="1174.1958"
   viewBox="0 0 6423.9038 1174.1958"
   version="1.1"
   id="svg1"
   xml:space="preserve"
   xmlns="http://www.w3.org/2000/svg"
   xmlns:svg="http://www.w3.org/2000/svg"><defs
     id="defs1" /><g
     id="g16"
     transform="translate(1291.9519,-372.32499)"><path
       style="display:inline;fill:#9d3c48;fill-opacity:1;stroke:none;stroke-width:0.8;stroke-dasharray:none;stroke-opacity:1"
       d="m 5131.9519,1546.5207 -2.6583,-1143.36036 c -0.2289,-98.46289 -176.4156,71.76588 -235.7616,56.01558 -191.9182,-50.93468 -237.2468,77.69172 -466.5696,76.36204 -229.3229,-1.32968 -277.186,-163.8218 -338.415,-67.63356 -61.2289,96.18823 -133.6731,120.07527 -133.6731,120.07527 -135.3794,51.2143 -377.9754,-7.48458 -519.015,47.10988 -141.0396,54.59446 -541.6661,105.52933 -677.8412,188.58005 -136.1752,83.05073 -289.1101,102.62574 -370.2075,61.50783 -81.0974,-41.1179 -115.3556,5.75419 -168.1451,-8.67089 -52.7895,-14.42509 -184.8605,-1.61317 -184.8605,-1.61317 -346.4941,-15.35684 -277.1941,-69.24626 -421.6379,-52.37025 -144.4437,16.87601 -334.2873,-70.95902 -334.2873,-70.95902 -163.6166,-92.50999 -183.1387,1.66564 -271.9117,-33.26253 -88.773,-34.92817 -252.3903,-70.38844 -252.3903,-70.38844 -138.4889,-9.4385 -173.9562,-111.56243 -279.78284,-59.6012 -63.12782,30.99597 -93.47037,28.70728 -93.47037,28.70728 -173.26231,-28.05797 -218.87632,42.98073 -326.18612,34.21188 -107.30979,-8.76884 -245.79995,38.77201 -245.79995,38.77201 -160.388,78.12311 -587.21188,106.96748 -663.57458,117.95689 -76.3627,10.98941 -157.91994,40.19941 -157.91994,40.19941 -52.0076,19.49977 -173.2543,2.13366 -279.7959,-31.70148 v 730.06278 z"
       id="Layer3" /></g></svg>
