<?xml version="1.0" encoding="UTF-8" standalone="no"?>
<!-- Created with Inkscape (http://www.inkscape.org/) -->

<svg
   width="6425.2734"
   height="568.90002"
   viewBox="0 0 6425.2734 568.90002"
   version="1.1"
   id="svg1"
   xml:space="preserve"
   inkscape:version="1.3.2 (091e20ef0f, 2023-11-25, custom)"
   sodipodi:docname="Layers scenery centered.svg"
   inkscape:export-filename="Layers scenery centered.png"
   inkscape:export-xdpi="96"
   inkscape:export-ydpi="96"
   xmlns:inkscape="http://www.inkscape.org/namespaces/inkscape"
   xmlns:sodipodi="http://sodipodi.sourceforge.net/DTD/sodipodi-0.dtd"
   xmlns="http://www.w3.org/2000/svg"
   xmlns:svg="http://www.w3.org/2000/svg"><sodipodi:namedview
     id="namedview1"
     pagecolor="#505050"
     bordercolor="#eeeeee"
     borderopacity="1"
     inkscape:showpageshadow="0"
     inkscape:pageopacity="0"
     inkscape:pagecheckerboard="0"
     inkscape:deskcolor="#505050"
     inkscape:document-units="px"
     inkscape:zoom="0.157834"
     inkscape:cx="2261.8701"
     inkscape:cy="1840.5414"
     inkscape:window-width="1902"
     inkscape:window-height="1145"
     inkscape:window-x="6"
     inkscape:window-y="43"
     inkscape:window-maximized="0"
     inkscape:current-layer="g16" /><defs
     id="defs1" /><g
     inkscape:label="filled"
     inkscape:groupmode="layer"
     id="g16"
     transform="translate(1292.3926,-1469.9272)"><path
       style="display:inline;fill:#35212d;fill-opacity:1;stroke:none;stroke-width:0.8;stroke-dasharray:none;stroke-opacity:1"
       d="m -1292.3926,2038.8273 0.4407,-327.7698 c 223.4292,-6.91 469.45228,39.0236 469.45228,39.0236 0,0 201.1925,41.8872 386.48131,-80.7961 0,0 72.47287,-35.4562 153.99216,-14.4375 0,0 30.15355,8.7975 47.62643,-12.6113 17.47289,-21.4088 11.32025,13.1385 93.82853,-3.7021 82.508291,-16.8406 153.987552,-21.993 252.71411,-60.1282 98.72657,-38.1352 213.84614,-40.5037 213.84614,-40.5037 0,0 68.04907,-2.5109 141.3222,-25.4711 73.27312,-22.9601 275.50168,-107.4521 559.99884,54.6641 284.4972,162.1162 462.335,358.9181 708.7507,325.0167 336.124,-46.2433 208.2482,159.5689 644.24,-50.3733 435.9919,-209.9422 674.2052,-27.237 919.7763,-193.0082 245.571,-165.7712 444.5265,-16.7545 656.7874,1.0545 212.2609,17.8089 193.2999,62.5415 499.388,-40.4456 306.0882,-102.9871 264.2033,67.3475 594.5725,104.1659 28.7426,3.2032 56.0421,6.6597 82.056,10.2254 l -0.9291,314.6189 z"
       id="Layer1"
       sodipodi:nodetypes="cccccssscssssssssccc"
       inkscape:export-filename="svg_img/Layer1.svg"
       inkscape:export-xdpi="96"
       inkscape:export-ydpi="96"
       sodipodi:insensitive="true" /></g></svg>
