<?xml version="1.0" encoding="UTF-8" standalone="no"?>
<!-- Created with Inkscape (http://www.inkscape.org/) -->

<svg
   width="6423.9038"
   height="602.84424"
   viewBox="0 0 6423.9038 602.84424"
   version="1.1"
   id="svg1"
   xml:space="preserve"
   inkscape:version="1.3.2 (091e20ef0f, 2023-11-25, custom)"
   sodipodi:docname="Layers scenery centered.svg"
   inkscape:export-filename="Layers scenery centered.png"
   inkscape:export-xdpi="96"
   inkscape:export-ydpi="96"
   xmlns:inkscape="http://www.inkscape.org/namespaces/inkscape"
   xmlns:sodipodi="http://sodipodi.sourceforge.net/DTD/sodipodi-0.dtd"
   xmlns="http://www.w3.org/2000/svg"
   xmlns:svg="http://www.w3.org/2000/svg"><sodipodi:namedview
     id="namedview1"
     pagecolor="#505050"
     bordercolor="#eeeeee"
     borderopacity="1"
     inkscape:showpageshadow="0"
     inkscape:pageopacity="0"
     inkscape:pagecheckerboard="0"
     inkscape:deskcolor="#505050"
     inkscape:document-units="px"
     inkscape:zoom="0.157834"
     inkscape:cx="2261.8701"
     inkscape:cy="1840.5414"
     inkscape:window-width="1902"
     inkscape:window-height="1145"
     inkscape:window-x="6"
     inkscape:window-y="43"
     inkscape:window-maximized="0"
     inkscape:current-layer="g16" /><defs
     id="defs1" /><g
     inkscape:label="filled"
     inkscape:groupmode="layer"
     id="g16"
     transform="translate(1291.9519,-255.22865)"><path
       style="display:inline;fill:#eb6770;fill-opacity:1;stroke:none;stroke-width:0.8;stroke-dasharray:none;stroke-opacity:1"
       d="m -1291.9519,423.49445 c 39.7774,-10.46754 74.0404,-25.33522 100.6445,-45.42208 161.9002,-122.23926 246.34616,-123.03917 263.41243,-108.42661 17.06627,14.61256 62.86252,12.00695 85.0306,-6.41497 22.16809,-18.42192 115.76947,46.1814 203.05673,48.11962 0,0 86.05222,-4.33932 100.27684,-2.73503 0,0 38.63108,10.62516 80.17676,-17.79102 0,0 17.39053,-11.20688 34.74264,-14.1238 17.3521,-2.91692 27.79178,-24.31416 59.29288,-21.15444 31.50109,3.15973 54.73722,21.67502 54.73722,21.67502 0,0 13.8676,12.38375 53.14452,10.32379 0,0 80.21754,10.61286 113.24213,30.84719 33.02458,20.23433 20.15456,-3.58649 79.79968,11.64235 59.64512,15.22884 75.42992,-14.79589 140.74116,-3.34563 65.31124,11.45026 31.91328,15.96633 77.88317,13.45286 45.96988,-2.51347 58.43715,5.9085 76.99006,4.0425 18.5529,-1.86601 36.34584,-6.89356 90.18464,7.04446 0,0 68.82248,23.29155 96.94757,41.72881 28.1251,18.43727 103.33707,26.54513 160.82427,58.96813 57.4873,32.42299 154.5498,59.05923 253.6257,55.36836 99.0759,-3.69087 160.3745,-19.39529 234.0843,-10.45205 73.7097,8.94325 138.716,-17.94089 160.2288,-20.58521 21.5128,-2.64431 62.429,-10.70014 86.9383,-5.38932 0,0 10.4089,12.04135 69.2957,-13.8408 58.8867,-25.88215 81.5743,-1.62956 117.7333,-15.60993 36.1591,-13.98036 65.6166,31.18928 133.6061,18.34332 67.9896,-12.84596 208.0036,34.46768 293.7946,12.72263 85.7909,-21.74505 270.0084,40.93692 295.9893,16.39144 25.9809,-24.54549 311.0425,-31.87524 328.0295,-49.08209 16.9871,-17.20684 40.0346,-87.58597 116.5428,-28.64008 0,0 49.225,37.06032 125.3586,15.12424 76.1336,-21.93608 22.8549,-7.48339 105.8065,6.06683 82.9517,13.55022 246.1147,-0.91533 304.3461,26.05433 58.2315,26.96967 114.9811,-28.75236 208.7845,-25.80878 0,0 30.7398,6.93949 95.2638,-31.12304 64.5239,-38.06253 70.66,9.91596 154.9318,2.67052 84.2719,-7.24544 60.1344,-30.16651 167.1565,-2.18551 0,0 42.4005,18.16376 119.9543,-6.11738 77.5537,-24.28114 113.7019,-135.11631 225.5899,-59.96986 111.888,75.14645 66.7835,74.5218 236.643,32.46124 169.8595,-42.06056 119.8129,65.0199 288.7553,46.48348 0,0 109.4908,-55.49305 213.6246,-15.32543 88.9517,34.31142 132.0988,66.71073 216.2912,42.12459 l 0.4015,416.4658 -6423.9038,-28.6515 z"
       id="Layer8"
       sodipodi:nodetypes="cssscccssccssssscssssscsssssscssscsscssscscccc"
       inkscape:export-filename="img/Layer8.svg"
       inkscape:export-xdpi="96"
       inkscape:export-ydpi="96"
       sodipodi:insensitive="true" /></g></svg>
