<?xml version="1.0" encoding="UTF-8" standalone="no"?>
<!-- Created with Inkscape (http://www.inkscape.org/) -->

<svg
   width="6424.3442"
   height="481.80234"
   viewBox="0 0 6424.3442 481.80234"
   version="1.1"
   id="svg1"
   xml:space="preserve"
   inkscape:version="1.3.2 (091e20ef0f, 2023-11-25, custom)"
   sodipodi:docname="Layers scenery centered.svg"
   inkscape:export-filename="Layers scenery centered.png"
   inkscape:export-xdpi="96"
   inkscape:export-ydpi="96"
   xmlns:inkscape="http://www.inkscape.org/namespaces/inkscape"
   xmlns:sodipodi="http://sodipodi.sourceforge.net/DTD/sodipodi-0.dtd"
   xmlns="http://www.w3.org/2000/svg"
   xmlns:svg="http://www.w3.org/2000/svg"><sodipodi:namedview
     id="namedview1"
     pagecolor="#505050"
     bordercolor="#eeeeee"
     borderopacity="1"
     inkscape:showpageshadow="0"
     inkscape:pageopacity="0"
     inkscape:pagecheckerboard="0"
     inkscape:deskcolor="#505050"
     inkscape:document-units="px"
     inkscape:zoom="0.157834"
     inkscape:cx="2261.8701"
     inkscape:cy="1840.5414"
     inkscape:window-width="1902"
     inkscape:window-height="1145"
     inkscape:window-x="6"
     inkscape:window-y="43"
     inkscape:window-maximized="0"
     inkscape:current-layer="g16" /><defs
     id="defs1" /><g
     inkscape:label="filled"
     inkscape:groupmode="layer"
     id="g16"
     transform="translate(1292.3926,-454.64835)"><path
       style="display:inline;fill:#c64752;fill-opacity:1;stroke:none;stroke-width:0.8;stroke-dasharray:none;stroke-opacity:1"
       d="M 5131.9519,936.4507 V 678.95105 c -45.4715,-7.78008 -85.8513,-8.80568 -117.6337,1.48489 -173.539,56.1888 -195.9026,9.17675 -195.9026,9.17675 -90.4765,-119.46989 -262.6246,-22.89929 -483.0357,-78.58707 -220.411,-55.68777 -169.2031,-116.86797 -256.0663,-75.89672 -86.8632,40.97126 -166.6138,-48.95755 -227.0057,-32.46659 -60.3918,16.49095 -76.1216,-1.32222 -108.7473,14.01719 -32.6257,15.3394 -161.9639,-27.74818 -204.1204,-46.88882 -42.1566,-19.14064 -59.5414,-17.94824 -60.6483,-8.46193 -1.1068,9.48631 -20.6126,13.73009 -20.6126,13.73009 -24.5246,2.99013 -50.9882,15.4585 -92.8033,49.62334 -41.8151,34.16484 -79.831,-5.15063 -98.7692,31.52751 -18.9381,36.67814 -106.4754,71.66587 -106.4754,71.66587 -66.7396,52.46383 -137.8002,43.65276 -137.8002,43.65276 -106.2289,-7.46697 -87.5366,34.3579 -163.5738,70.19099 -76.0372,35.83308 -158.7538,39.97267 -235.8041,38.10405 -77.0502,-1.86862 -196.853,60.74812 -245.567,71.91077 -48.714,11.16265 -150.0144,18.57682 -179.4458,6.4057 -29.4314,-12.17112 -111.7751,-22.49684 -111.7751,-22.49684 -116.7226,-16.01536 -138.5673,-16.90419 -138.5673,-16.90419 -236.1254,11.50488 -297.3244,-81.01256 -371.6691,-60.05085 -99.3405,28.00937 -133.1009,-21.24732 -177.0186,-41.85804 -53.0383,-24.89108 -87.7642,-10.88879 -87.7642,-10.88879 -80.8184,9.39483 -287.9299,-33.87523 -369.5881,-72.48461 -81.6582,-38.60939 -275.9643,-19.63244 -444.5018,-67.8003 -168.53747,-48.16787 -97.55439,16.50324 -228.4467,-6.76247 -130.89231,-23.26571 -361.67531,-5.12797 -435.59609,9.55703 -73.92077,14.68501 -199.15368,-5.24203 -231.79519,-7.743 -32.6415,-2.50098 -114.64797,8.60537 -114.64797,8.60537 -331.56847,67.95984 -305.60044,9.35465 -523.81045,37.15179 -103.6299,13.20112 -184.5214,-1.46614 -252.3302,-24.5311 l -2.8223,344.95817 z"
       id="Layer5"
       sodipodi:nodetypes="ccsssscssssscssccssccsscssssscsccc"
       inkscape:export-filename="img/Layer5.svg"
       inkscape:export-xdpi="96"
       inkscape:export-ydpi="96"
       sodipodi:insensitive="true" /></g></svg>
