<?xml version="1.0" encoding="UTF-8" standalone="no"?>
<!-- Created with Inkscape (http://www.inkscape.org/) -->

<svg
   width="6423.9038"
   height="817.56665"
   viewBox="0 0 6423.9038 817.56665"
   version="1.1"
   id="svg1"
   xml:space="preserve"
   xmlns="http://www.w3.org/2000/svg"
   xmlns:svg="http://www.w3.org/2000/svg"><defs
     id="defs1" /><g
     id="g16"
     transform="translate(1291.9519,-465.56217)"><path
       style="display:inline;fill:#dc4d58;fill-opacity:1;stroke:none;stroke-width:0.8;stroke-dasharray:none;stroke-opacity:1"
       d="m 5131.9519,1283.1288 -2.1003,-625.80671 c -34.5021,0.70219 -77.1095,2.70584 -128.9548,6.90796 -186.6864,15.13116 -420.5267,-85.01877 -550.5213,-68.34876 -129.9946,16.67001 -370.9594,-9.23099 -441.5117,18.17855 -70.5523,27.40953 -286.0558,-34.4073 -382.7381,-21.28961 -96.6824,13.11768 -322.1331,-26.74106 -355.3837,-43.64399 -33.2507,-16.90293 -206.3881,-1.82323 -265.0127,13.805 -58.6245,15.62823 -107.8633,-13.02099 -167.4595,-1.11167 -59.5962,11.90931 -61.7388,37.56635 -190.9454,82.70009 -129.2067,45.13375 -284.8911,-0.74287 -412.2313,53.96947 -127.3402,54.71234 -222.6945,-21.45269 -380.6325,-9.87314 -157.938,11.57954 -254.5586,-86.40526 -335.7995,-76.56327 -81.2409,9.842 -64.8766,-23.00781 -174.2798,-35.02171 -84.4587,-9.27466 -109.6261,-24.39434 -109.6261,-24.39434 -78.1219,-29.769 -117.491,14.71876 -145.4125,5.21363 -27.9214,-9.50512 -56.921,9.8046 -56.921,9.8046 -111.3322,46.52895 -49.5666,1.78247 -175.4623,-4.66931 -149.9496,-7.68447 -125.4614,19.73283 -189.2371,79.41201 -63.7757,59.67918 -231.3246,14.86735 -231.3246,14.86735 -233.58844,-45.54109 -172.49061,99.3528 -319.92963,38.03293 -147.43901,-61.31988 -268.53119,-55.64346 -268.53119,-55.64346 0,0 -108.72307,43.07702 -226.35998,17.97321 -117.6369,-25.1038 -165.56958,-5.31165 -165.56958,-5.31165 -153.93011,21.83342 -296.89948,-76.52174 -362.52159,-108.42886 -65.62212,-31.90712 -182.25583,-34.83978 -209.71893,-54.95239 -27.4631,-20.11262 -104.7632,-23.37256 -104.7632,-23.37256 -19.5719,0.28241 -41.0546,13.41597 -70.9555,33.27365 v 784.29298"
       id="Layer6" /></g></svg>
