<?xml version="1.0" encoding="UTF-8" standalone="no"?>
<!-- Created with Inkscape (http://www.inkscape.org/) -->

<svg
   width="6424.3442"
   height="228.08032"
   viewBox="0 0 6424.3442 228.08032"
   version="1.1"
   id="svg1"
   xml:space="preserve"
   inkscape:version="1.3.2 (091e20ef0f, 2023-11-25, custom)"
   sodipodi:docname="Layers scenery centered.svg"
   inkscape:export-filename="Layers scenery centered.png"
   inkscape:export-xdpi="96"
   inkscape:export-ydpi="96"
   xmlns:inkscape="http://www.inkscape.org/namespaces/inkscape"
   xmlns:sodipodi="http://sodipodi.sourceforge.net/DTD/sodipodi-0.dtd"
   xmlns="http://www.w3.org/2000/svg"
   xmlns:svg="http://www.w3.org/2000/svg"><sodipodi:namedview
     id="namedview1"
     pagecolor="#505050"
     bordercolor="#eeeeee"
     borderopacity="1"
     inkscape:showpageshadow="0"
     inkscape:pageopacity="0"
     inkscape:pagecheckerboard="0"
     inkscape:deskcolor="#505050"
     inkscape:document-units="px"
     inkscape:zoom="0.157834"
     inkscape:cx="2261.8701"
     inkscape:cy="1840.5414"
     inkscape:window-width="1902"
     inkscape:window-height="1145"
     inkscape:window-x="6"
     inkscape:window-y="43"
     inkscape:window-maximized="0"
     inkscape:current-layer="g16" /><defs
     id="defs1" /><g
     inkscape:label="filled"
     inkscape:groupmode="layer"
     id="g16"
     transform="translate(1292.3926,-2199.5361)"><path
       style="fill:#11111b;fill-opacity:1;stroke:none;stroke-width:0.8;stroke-opacity:1"
       d="m -1291.9519,2427.3736 -0.4407,-204.1824 c 23.4464,3.2255 35.8333,7.6153 58.9379,10.5034 43.7881,5.4736 30.9539,4.7711 62.0209,4.7711 2.9875,0 23.4737,-2.0657 28.3841,0 24.8953,10.4728 -52.1444,3.6039 28.4439,9.3605 47.6001,3.4002 87.9532,-1.1883 133.58352,14.3125 19.50679,6.6265 190.48962,-6.009 219.55167,-14.3125 20.99024,-5.9973 45.86488,-21.2729 69.62335,-14.3125 15.98027,4.6816 33.56035,16.7759 47.70839,23.8539 3.08631,1.5441 8.20593,-1.3353 11.40023,0 35.26495,14.7417 75.58934,27.0696 113.51311,33.3901 6.57375,1.0956 36.2261,2.6814 42.92606,0 4.176,-1.6712 5.68461,-7.2276 9.54161,-9.5418 8.95618,-5.3736 32.35436,-16.96 42.91563,-19.0722 19.79746,-3.9594 44.32633,0 64.56432,0 h 152.3039 c 73.05959,0 148.922193,16.7242 221.394212,0 28.09335,-6.4831 50.560005,-24.56 71.562829,-42.9375 5.07761,-4.443 8.279122,-11.2926 14.312499,-14.3125 3.54553,-1.7747 10.69023,2.0904 14.05037,0 1.75741,-1.0934 2.41657,-3.7685 4.39062,-4.3907 18.47256,-5.8215 47.13617,16.4506 67.94932,18.7631 17.82067,1.9801 44.61893,-6.1962 61.95279,0 10.69758,3.8241 21.45735,6.7263 32.86119,9.007 10.54516,2.1089 29.40587,-5.0123 39.01613,0 17.77982,9.2731 34.0501,11.9629 52.42493,18.0897 5.15478,1.7187 12.20002,-1.8454 17.30696,0 14.31369,5.1721 29.64685,14.4721 42.9375,18.9022 22.34457,7.4481 71.38101,-2.5104 91.21505,-9.5348 6.75027,-2.3906 21.55698,0.8348 27.39951,0 28.99524,-4.1429 57.74075,-4.7257 86.6362,-9.5417 8.53977,-1.4234 39.04109,-2.9195 47.79836,0 5.43955,1.8133 9.18401,6.9774 14.3125,9.5417 1.99088,0.9955 14.12676,-1.8374 15.25863,0 0.77809,1.2631 -1.34415,3.8228 0,4.4506 2.87785,1.3442 6.44752,-0.7708 9.52885,0 3.44968,0.863 5.98671,4.6897 9.54178,4.7707 2.09811,0.048 2.712,-3.2784 4.45192,-4.4519 10.96403,-7.3945 34.12541,-9.4869 39.96259,-16.4838 5.0937,-6.1056 7.57004,-14.8689 14.31283,-19.0832 12.03531,-7.5221 109.10147,-11.3165 119.79996,-9.5335 28.62246,4.7703 17.82261,7.6231 41.82634,22.6086 7.2645,4.5352 16.19443,5.7119 23.85427,9.5418 38.97007,19.4848 53.70247,24.2871 100.53847,19.0832 21.6289,-2.4032 40.9566,-14.8705 62.0207,-19.0832 9.4582,-1.8916 23.9684,3.545 33.0106,0 29.9657,-11.7482 71.5336,-1.8883 103.2446,-4.7711 29.7618,-2.7055 122.9902,-19.5666 150.3497,-9.5414 19.9159,7.2976 25.4381,22.6988 49.4905,26.4133 20.8458,3.2192 85.3312,3.8137 112.0261,0 22.6444,-3.2351 43.5873,-14.3125 66.7818,-14.3125 72.4767,0 144.4192,4.7707 217.0063,4.7707 12.3575,0 70.1023,6.4848 82.8534,0 22.6772,-11.5331 33.9487,-21.1001 57.9721,-26.579 39.7852,-9.0736 78.8204,17.5692 116.5251,23.8543 11.104,1.8509 46.0197,0.8611 55.1592,-4.7707 3.0105,-1.8551 0.7822,-8.0469 3.7885,-9.9087 10.2966,-6.3765 21.6462,-11.3752 33.3957,-14.3125 6.0825,-1.5205 15.2459,2.2305 21.2303,0 15.8033,-5.8901 26.8928,-9.2711 41.6783,-14.3125 7.1515,-2.4384 19.312,0 26.6154,0 70.2593,0 52.671,18.1838 111.0015,47.3673 9.4358,4.7208 21.1017,0 31.6526,0 20.2967,0 46.1605,2.9474 66.7921,0 19.5002,-2.7859 69.0077,-16.4452 86.3847,-9.1859 44.9292,18.7692 158.3284,57.0824 202.1055,45.1432 27.1194,-7.3962 47.9699,-16.8179 71.5628,-28.625 12.5224,-6.2668 64.4535,0 82.0183,0 10.4787,0 55.9076,0.8735 66.918,4.7708 6.4291,2.2756 11.7016,7.7661 18.4287,8.8872 8.1544,1.3591 36.214,-5.1332 44.9501,0 21.1498,12.4275 92.6201,4.1305 123.4018,4.1305 15.4832,0 42.6849,4.137 57.1606,0 4.7462,-1.3564 68.0408,-46.9485 76.3335,-52.4793 3.2941,-2.1969 59.8533,-0.4486 62.0598,0 15.4285,3.1371 28.9986,12.3154 42.523,19.0776 15.8722,7.9361 32.192,6.113 40.3006,9.5418 25.3372,10.7142 -23.4657,-1.6329 31.7069,14.1309 25.4692,7.277 18.085,-4.6448 27.1457,-11.1762 6.9471,-5.0079 15.9028,-6.3612 23.8543,-9.5418 13.1284,-5.2514 101.9822,-9.6433 111.5472,-4.7707 18.4084,9.3775 49.682,48.593 63.8958,54.41 10.3025,4.2163 22.3757,-1.5743 33.3957,0 9.2329,-0.8417 18.5173,-1.2372 27.6986,-2.525 9.9889,-1.4012 22.1201,-7.0116 30.5165,-11.7262 6.7685,-3.8004 30.8882,1.3322 39.0073,2.346 8.1157,1.0134 69.8487,2.3871 79.4049,0 11.3693,-2.84 21.7413,-10.3764 32.8795,-14.089 1.7719,-0.5907 4.1836,0.629 5.9408,0 18.2942,-6.5494 36.2517,-6.7826 56.0945,-6.7826 16.0758,0 29.0374,8.2796 44.6273,11.744 5.35,1.1889 10.9611,0 16.4416,0 6.879,0 14.6208,0.6142 21.1392,-2.3487 27.0356,-12.2891 64.5746,-54.0992 95.8083,-46.9763 12.7427,2.9061 14.6966,11.3893 24.8701,18.7882 5.83,4.2401 20.114,11.8915 28.1856,14.0928 29.8923,8.1525 63.1064,4.6977 93.941,4.6977 7.855,0 23.5982,-2.081 30.5347,0 11.7158,3.5147 35.0865,33.5068 37.581,32.8833 2.7386,-0.6847 4.492,-3.4957 7.0462,-4.6977 24.2378,-11.406 50.1282,-23.0876 75.1619,-32.8833 31.8336,-12.4565 62.3159,-18.8736 96.3009,-21.1392 39.2845,-2.6189 85.8299,36.6541 119.7756,32.8823 16.0685,-1.7854 31.758,-3.9602 46.9763,-9.3953 10.5568,-3.7703 19.9775,-10.3226 30.5343,-14.0928 21.573,-7.7045 13.7779,-2.2699 32.8835,-7.0464 0.7855,-0.1964 4.822,-3.3672 6.8589,-2.3488 21.4057,10.7025 43.5806,19.1179 67.5534,23.1134 18.7812,3.1302 37.8726,4.3502 56.3715,9.3953 30.4947,8.3167 59.8983,20.846 91.6035,23.488 20.5524,1.7126 30.1052,-4.4196 48.3049,-12.5082 v 146.9852 z"
       id="Layer0"
       sodipodi:nodetypes="ccsssssssssssssssssscsssssssssssssssssssssssssssssssssssssssssssssssssssssssssssssccsssssssssssssssssssssssssssccc"
       inkscape:export-filename="svg_img/Layer0.svg"
       inkscape:export-xdpi="96"
       inkscape:export-ydpi="96"
       sodipodi:insensitive="true" /></g></svg>
