<?xml version="1.0" encoding="UTF-8" standalone="no"?>
<!-- Created with Inkscape (http://www.inkscape.org/) -->

<svg
   width="6423.9038"
   height="786.48993"
   viewBox="0 0 6423.9038 786.48993"
   version="1.1"
   id="svg1"
   xml:space="preserve"
   xmlns="http://www.w3.org/2000/svg"
   xmlns:svg="http://www.w3.org/2000/svg"><defs
     id="defs1" /><g
     id="g16"
     transform="translate(1291.9519,-633.27574)"><path
       style="display:inline;fill:#6e303c;fill-opacity:1;stroke:none;stroke-width:0.723512;stroke-dasharray:none;stroke-opacity:1"
       d="m -1291.9519,1419.7657 v -140.6292 c 0,-16.3647 31.9903,-8.5812 49.2982,-10.4464 144.9051,-15.6159 108.1784,-170.2033 294.2907,-93.2937 186.11227,76.9096 182.52881,95.1624 342.87018,61.2871 160.34129,-33.8754 335.13575,-15.5359 489.48373,44.8509 117.087161,45.8091 136.16564,-39.948 386.54178,-64.1918 0,0 28.06595,-0.8799 68.87845,-23.5633 35.02384,-19.4662 20.17803,22.6416 96.53578,-50.1103 0,0 17.73203,-16.3785 66.70266,-17.5865 48.97062,-1.2081 159.10878,-61.6167 202.67073,-102.7628 43.56197,-41.14611 53.41066,20.2344 139.07503,-14.0015 0,0 77.76114,-30.41651 162.73176,-75.59259 84.9707,-45.1761 129.0441,-52.4516 187.4808,-37.0477 75.9384,20.0175 30.1305,-58.2467 143.9388,-27.1871 110.1427,30.0592 85.6355,67.5127 350.5662,72.8147 0,0 60.0549,10.0325 153.0947,-24.5358 93.0397,-34.5683 34.0086,47.68548 305.7635,51.47808 0,0 79.5732,5.7003 130.2214,-15.73678 0,0 20.7173,-12.4295 38.7387,-1.0626 0,0 77.3431,32.19828 109.6314,31.09348 32.2882,-1.1048 58.9936,-12.6248 109.1679,13.7613 50.1742,26.38611 99.5815,-64.55378 158.716,-37.1709 59.1344,27.383 139.1828,27.9296 139.1828,27.9296 0,0 17.558,1.2081 62.7256,-11.2955 45.1676,-12.5036 96.656,-17.3747 172.7964,9.3456 76.1404,26.72021 174.2815,-35.09048 194.6356,-44.62968 0,0 43.3563,-22.6316 108.4217,-13.3077 0,0 102.1733,17.8183 188.1685,-11.0809 85.9951,-28.8991 223.5962,-50.7232 223.5962,-50.7232 0,0 51.3626,-79.7342 142.3045,-97.0633 0,0 65.4163,18.5229 113.308,2.856 47.8917,-15.6669 103.024,0.2637 166.7763,-18.3994 0,0 168.9981,42.8213 238.1283,4.687 69.1303,-38.1342 282.0359,64.20443 487.3184,-2.2553 112.7079,-36.48891 147.2267,-96.69165 200.1431,-122.91977 v 781.68916 z"
       id="Layer2" /></g></svg>
