<?xml version="1.0" encoding="UTF-8" standalone="no"?>
<!-- Created with Inkscape (http://www.inkscape.org/) -->

<svg
   width="6423.0947"
   height="791.11163"
   viewBox="0 0 6423.0947 791.11163"
   version="1.1"
   id="svg1"
   xml:space="preserve"
   inkscape:version="1.3.2 (091e20ef0f, 2023-11-25, custom)"
   sodipodi:docname="Layers scenery centered.svg"
   inkscape:export-filename="Layers scenery centered.png"
   inkscape:export-xdpi="96"
   inkscape:export-ydpi="96"
   xmlns:inkscape="http://www.inkscape.org/namespaces/inkscape"
   xmlns:sodipodi="http://sodipodi.sourceforge.net/DTD/sodipodi-0.dtd"
   xmlns="http://www.w3.org/2000/svg"
   xmlns:svg="http://www.w3.org/2000/svg"><sodipodi:namedview
     id="namedview1"
     pagecolor="#505050"
     bordercolor="#eeeeee"
     borderopacity="1"
     inkscape:showpageshadow="0"
     inkscape:pageopacity="0"
     inkscape:pagecheckerboard="0"
     inkscape:deskcolor="#505050"
     inkscape:document-units="px"
     inkscape:zoom="0.157834"
     inkscape:cx="2261.8701"
     inkscape:cy="1840.5414"
     inkscape:window-width="1902"
     inkscape:window-height="1145"
     inkscape:window-x="6"
     inkscape:window-y="43"
     inkscape:window-maximized="0"
     inkscape:current-layer="g16" /><defs
     id="defs1" /><g
     inkscape:label="filled"
     inkscape:groupmode="layer"
     id="g16"
     transform="translate(1291.9519,-282.23819)"><path
       style="display:inline;fill:#e64f5a;fill-opacity:1;stroke:none;stroke-width:0.8;stroke-dasharray:none;stroke-opacity:1"
       d="m 1034.288,644.94219 c 0,0 236.6291,-71.85466 348.6168,-156.56144 111.9876,-84.70677 87.2462,-35.84389 146.2264,-88.11011 0,0 11.2395,-8.57822 25.7326,-6.72357 14.4932,1.85465 22.1494,-23.26466 64.1476,-38.5658 41.9983,-15.30114 80.0746,-38.37373 128.2527,-36.70905 48.1782,1.66467 93.7359,-34.45116 93.7359,-34.45116 0,0 3.6067,-7.07118 61.6993,8.67778 80.8645,21.92246 94.6011,-20.75488 146.9268,-7.71575 0,0 17.5703,7.8605 34.5007,22.20247 16.9303,14.34197 32.1546,1.91855 112.5437,46.76837 0,0 14.3405,10.16174 36.5399,10.0946 22.1994,-0.0671 17.7807,24.33413 96.3082,28.37009 78.5276,4.03596 38.6803,28.62758 126.7642,39.82625 88.0839,11.19867 225.5413,101.18039 225.5413,101.18039 0,0 114.3565,75.19391 211.8241,73.99256 L 5131.1424,1073.3499 -1291.9519,1031.7682 629.7828,737.77122 c 100.87089,-15.43175 172.1223,-40.21661 250.0943,-52.71416 77.9721,-12.49755 154.4109,-40.11487 154.4109,-40.11487 z"
       id="Layer7"
       sodipodi:nodetypes="cscssscscscsssccccssc"
       inkscape:export-filename="img/Layer7.svg"
       inkscape:export-xdpi="96"
       inkscape:export-ydpi="96"
       sodipodi:insensitive="true" /></g></svg>
