<?xml version="1.0" encoding="UTF-8" standalone="no"?>
<!-- Created with Inkscape (http://www.inkscape.org/) -->

<svg
   width="6425.2734"
   height="348.6994"
   viewBox="0 0 6425.2734 348.6994"
   version="1.1"
   id="svg1"
   xml:space="preserve"
   inkscape:version="1.3.2 (091e20ef0f, 2023-11-25, custom)"
   sodipodi:docname="Layers scenery centered.svg"
   inkscape:export-filename="Layers scenery centered.png"
   inkscape:export-xdpi="96"
   inkscape:export-ydpi="96"
   xmlns:inkscape="http://www.inkscape.org/namespaces/inkscape"
   xmlns:sodipodi="http://sodipodi.sourceforge.net/DTD/sodipodi-0.dtd"
   xmlns="http://www.w3.org/2000/svg"
   xmlns:svg="http://www.w3.org/2000/svg"><sodipodi:namedview
     id="namedview1"
     pagecolor="#505050"
     bordercolor="#eeeeee"
     borderopacity="1"
     inkscape:showpageshadow="0"
     inkscape:pageopacity="0"
     inkscape:pagecheckerboard="0"
     inkscape:deskcolor="#505050"
     inkscape:document-units="px"
     inkscape:zoom="0.157834"
     inkscape:cx="2261.8701"
     inkscape:cy="1840.5414"
     inkscape:window-width="1902"
     inkscape:window-height="1145"
     inkscape:window-x="6"
     inkscape:window-y="43"
     inkscape:window-maximized="0"
     inkscape:current-layer="g16" /><defs
     id="defs1" /><g
     inkscape:label="filled"
     inkscape:groupmode="layer"
     id="g16"
     transform="translate(1292.3926,-696.46442)"><path
       style="display:inline;fill:#b3424d;fill-opacity:1;stroke:none;stroke-width:0.8;stroke-dasharray:none;stroke-opacity:1"
       d="m -1291.9519,696.46444 c 198.1649,62.62484 854.72162,252.65266 1140.39179,119.4051 0,0 692.37561,-150.37542 1244.53011,155.62536 0,0 86.5131,63.1884 472.4755,-63.11591 0,0 331.4328,-40.78432 514.7072,-98.55367 0,0 64.3595,-3.48603 87.7227,-22.08828 23.3633,-18.60226 49.8595,26.2453 195.8346,33.42762 145.975,7.18233 318.6562,109.4475 535.886,16.61787 217.2298,-92.82963 684.7809,0.58421 1110.4844,130.50854 260.3844,79.46913 766.4595,-10.10694 1120.2526,-91.66422 l 2.548,168.12495 -6425.2736,0.412 z"
       id="Layer4"
       sodipodi:nodetypes="cccccsssscccc"
       inkscape:export-filename="svg_img/Layer4.svg"
       inkscape:export-xdpi="96"
       inkscape:export-ydpi="96"
       sodipodi:insensitive="true" /></g></svg>
